HIERARCHY
ROOT Hips
{
	OFFSET 0.00000 0.00000 0.00000
	CHANNELS 6 Xposition Yposition Zposition Zrotation Yrotation Xrotation 
	JOINT LHipJoint
	{
		OFFSET 0 0 0
		CHANNELS 3 Zrotation Yrotation Xrotation
		JOINT LeftHip
		{
			OFFSET 1.57338 -1.94743 0.52196
			CHANNELS 3 Zrotation Yrotation Xrotation
			JOINT LeftKnee
			{
				OFFSET 2.60333 -7.15259 0.00000
				CHANNELS 3 Zrotation Yrotation Xrotation
				JOINT LeftAnkle
				{
					OFFSET 2.77855 -7.63400 0.00000
					CHANNELS 3 Zrotation Yrotation Xrotation
					JOINT LeftToe
					{
						OFFSET 0.19847 -0.54529 2.28466
						CHANNELS 3 Zrotation Yrotation Xrotation
						End Site
						{
							OFFSET 0.00000 -0.00000 1.17993
						}
					}
				}
			}
		}
	}
	JOINT RHipJoint
	{
		OFFSET 0 0 0
		CHANNELS 3 Zrotation Yrotation Xrotation
		JOINT RightHip
		{
			OFFSET -1.61527 -1.94743 0.52196
			CHANNELS 3 Zrotation Yrotation Xrotation
			JOINT RightKnee
			{
				OFFSET -2.53829 -6.97390 0.00000
				CHANNELS 3 Zrotation Yrotation Xrotation
				JOINT RightAnkle
				{
					OFFSET -2.80762 -7.71387 0.00000
					CHANNELS 3 Zrotation Yrotation Xrotation
					JOINT RightToe
					{
						OFFSET -0.30536 -0.83898 2.28801
						CHANNELS 3 Zrotation Yrotation Xrotation
						End Site
						{
							OFFSET -0.00000 -0.00000 1.21323
						}
					}
				}
			}
		}
	}
	JOINT lowerback
	{
		OFFSET 0 0 0
		CHANNELS 3 Zrotation Yrotation Xrotation
		JOINT Chest
		{
			OFFSET -0.04381 1.99497 -0.19778
			CHANNELS 3 Zrotation Yrotation Xrotation
			JOINT Chest2
			{
				OFFSET -0.01959 2.01295 -0.04372
				CHANNELS 3 Zrotation Yrotation Xrotation
				JOINT lowerneck
				{
					OFFSET 0 0 0
					CHANNELS 3 Zrotation Yrotation Xrotation
					JOINT Neck
					{
						OFFSET -0.05459 1.76913 0.09708
						CHANNELS 3 Zrotation Yrotation Xrotation
						JOINT Head
						{
							OFFSET 0.09461 1.77368 -0.11172
							CHANNELS 3 Zrotation Yrotation Xrotation
							End Site
							{
								OFFSET 0.03812 1.78157 -0.04834
							}
						}
					}
				}
				JOINT LeftCollar
				{
					OFFSET 0 0 0
					CHANNELS 3 Zrotation Yrotation Xrotation
					JOINT LeftShoulder
					{
						OFFSET 3.50922 1.24034 -0.28866
CHANNELS 3 Zrotation Xrotation Yrotation
						JOINT LeftElbow
						{
OFFSET 0 -5.401880 0.000000
CHANNELS 3 Zrotation Xrotation Yrotation
							JOINT LeftWrist
							{
OFFSET 0 -3.685590 0.000000
CHANNELS 3 Zrotation Xrotation Yrotation
								JOINT lhand
								{
									OFFSET 0 0 0
CHANNELS 3 Zrotation Xrotation Yrotation
									JOINT LFingers
									{
OFFSET 0 -0.617530 0.000000
CHANNELS 3 Zrotation Xrotation Yrotation
										End Site
										{
OFFSET 0 -0.497870 0.000000
										}
									}
								}
								JOINT LThumb
								{
OFFSET 0 0.000000 0.000000
CHANNELS 3 Zrotation Xrotation Yrotation
									End Site
									{
OFFSET 0 -0.505470 0.505470
									}
								}
							}
						}
					}
				}
				JOINT RightCollar
				{
					OFFSET 0 0 0
					CHANNELS 3 Zrotation Yrotation Xrotation
					JOINT RightShoulder
					{
						OFFSET -2.95373 1.39649 -0.27346
CHANNELS 3 Zrotation Xrotation Yrotation
						JOINT RightElbow
						{
OFFSET 0 -6.106700 -0.000000
CHANNELS 3 Zrotation Xrotation Yrotation
							JOINT RightWrist
							{
OFFSET 0 -3.630520 0.000000
CHANNELS 3 Zrotation Xrotation Yrotation
								JOINT rhand
								{
									OFFSET 0 0 0
CHANNELS 3 Zrotation Xrotation Yrotation
									JOINT RFingers
									{
OFFSET 0 -0.583850 0.000000
CHANNELS 3 Zrotation Xrotation Yrotation
										End Site
										{
OFFSET 0 -0.470710 0.000000
										}
									}
								}
								JOINT RThumb
								{
OFFSET 0 0.000000 0.000000
CHANNELS 3 Zrotation Xrotation Yrotation
									End Site
									{
OFFSET 0 -0.477900 0.477900
									}
								}
							}
						}
					}
				}
			}
		}
	}
}
MOTION
Frames: 4
Frame Time: 0.008333333333333333
-0.072927 13.845768 -13.245458 7.004333 2.928895 26.591220 0.000000 0.000000 0.000000 -13.136688 -21.980171 -73.944998 21.940621 19.909252 95.682328 4.198092 -13.147069 -37.237756 0.239726 -3.149878 -8.696462 0.000000 0.000000 0.000000 -3.996493 10.956830 -78.896339 -25.353262 -19.298265 105.830099 -4.063378 -2.741570 -39.193891 -1.388186 7.451921 -21.062443 -1.988703 -0.821715 34.605715 -0.386290 -1.795315 3.589229 1.394950 -0.677820 -13.620305 -7.320489 -3.365052 -15.161673 8.710422 -2.367545 -25.115741 4.057973 -0.952574 -5.004356 0.000000 0.000000 0.000000 10.857516 -3.757973 -38.672020 17.198895 -27.119205 4.177581 22.489716 -1.708644 -22.062442 0.000000 0.000000 0.000000 -7.125000 0.000000 0.000000 -6.671339 53.542311 1.405872 0.000000 0.000000 0.000000 -13.986543 -4.673207 21.385911 -12.275879 -20.216380 -2.197159 -39.412450 10.290811 -6.778021 0.000000 0.000000 0.000000 7.125000 0.000000 0.000000 -9.138896 21.274775 -5.270936
-0.076214 13.822241 -13.186475 7.061827 3.108160 26.266399 0.000000 0.000000 0.000000 -13.431931 -21.792240 -73.496336 22.101056 19.893517 96.153637 4.227730 -13.288590 -37.377161 0.234097 -3.113209 -8.594244 0.000000 0.000000 0.000000 -3.800136 10.489221 -78.563324 -25.538704 -19.247622 106.391870 -4.002893 -2.689225 -38.888377 -1.519654 7.780556 -22.051326 -1.919867 -0.917184 34.629762 -0.401965 -1.894224 3.521253 1.384054 -0.722875 -13.708639 -7.190222 -3.367550 -15.264748 8.544129 -2.407976 -25.096992 3.978942 -0.974237 -4.987969 0.000000 0.000000 0.000000 10.546521 -5.014210 -38.652667 17.346256 -27.311666 4.245109 22.955456 -1.280811 -21.935223 0.000000 0.000000 0.000000 -7.125000 0.000000 0.000000 -6.151801 53.497399 1.290046 0.000000 0.000000 0.000000 -14.071953 -5.716925 22.159632 -12.792928 -20.980463 -2.380417 -38.873129 11.379997 -5.590536 0.000000 0.000000 0.000000 7.125000 0.000000 0.000000 -8.917456 22.824206 -4.828847
-0.079314 13.800073 -13.127058 7.107473 3.285136 25.903649 0.000000 0.000000 0.000000 -13.739526 -21.572161 -72.983463 22.257194 19.877174 96.612579 4.252277 -13.473426 -37.493832 0.237428 -3.133059 -8.649732 0.000000 0.000000 0.000000 -3.592366 10.027635 -78.158000 -25.709268 -19.199585 106.909715 -3.963326 -2.521239 -38.641835 -1.613839 8.010381 -22.745693 -1.839307 -1.027530 34.686888 -0.417231 -2.008233 3.449117 1.374316 -0.774752 -13.815077 -7.069346 -3.371613 -15.372757 8.390718 -2.447950 -25.078371 3.905772 -0.995700 -4.970473 0.000000 0.000000 0.000000 10.240580 -6.180454 -38.555893 17.611872 -27.656103 4.368184 23.420207 -0.910139 -21.676107 0.000000 0.000000 0.000000 -7.125000 0.000000 0.000000 -5.591850 53.313207 1.148030 0.000000 0.000000 0.000000 -14.174696 -6.757632 23.037172 -13.403301 -21.871813 -2.603926 -38.913068 11.918009 -4.782015 0.000000 0.000000 0.000000 7.125000 0.000000 0.000000 -9.064905 23.846075 -4.692921
-0.082720 13.776163 -13.068381 7.101442 3.430871 25.529308 0.000000 0.000000 0.000000 -14.011696 -21.278705 -72.467149 22.411372 19.860004 97.066031 4.273208 -13.648676 -37.593944 0.268079 -3.330162 -9.199465 0.000000 0.000000 0.000000 -3.357233 9.626049 -77.744920 -25.870115 -19.152898 107.399281 -3.956657 -2.189115 -38.495249 -1.652295 8.100773 -23.020631 -1.747070 -1.132823 34.727543 -0.419643 -2.109126 3.387744 1.366582 -0.821793 -13.903128 -6.984985 -3.374238 -15.538500 8.257045 -2.475551 -25.046940 3.844541 -1.007620 -4.940603 0.000000 0.000000 0.000000 9.935772 -7.278855 -38.405831 18.018141 -28.180364 4.557838 23.880470 -0.674934 -21.292330 0.000000 0.000000 0.000000 -7.125000 0.000000 0.000000 -4.999830 52.995769 0.985621 0.000000 0.000000 0.000000 -14.311775 -7.835244 24.001901 -14.107921 -22.888478 -2.870136 -40.700835 10.946753 -5.253702 0.000000 0.000000 0.000000 7.125000 0.000000 0.000000 -10.294567 23.088525 -5.520429
